<?xml version="1.0" encoding="utf-8"?>
<!-- Generator: Adobe Illustrator 27.2.0, SVG Export Plug-In . SVG Version: 6.00 Build 0)  -->
<svg version="1.1" id="Warstwa_1" xmlns="http://www.w3.org/2000/svg" xmlns:xlink="http://www.w3.org/1999/xlink" x="0px" y="0px"
	 viewBox="0 0 910.4 222.8" style="enable-background:new 0 0 910.4 222.8;" xml:space="preserve">
<style type="text/css">
	.st0{fill:#B81818;}
	.st1{fill:#163C69;}
	.st2{fill:#193E70;}
	.st3{fill:#FFFFFF;}
	.st4{fill:#D7A87E;}
	.st5{fill:#55381C;}
	.st6{fill:#1D1E1C;}
	.st7{fill:#E0DFDE;}
	.st8{fill:#D6302E;}
	.st9{fill:#297231;}
	.st10{fill:#EFC8A3;}
	.st11{fill:#725C45;}
	.st12{fill:#0B0D0D;}
	.st13{fill-rule:evenodd;clip-rule:evenodd;fill:#6B2D5F;}
	.st14{fill-rule:evenodd;clip-rule:evenodd;fill:#193E70;}
</style>
<g>
	<g>
		<g>
			<path class="st0" d="M132.9,78.9v-5h-16.1v5h5v31.8h-0.1c-21.5-8.3-22.8-42.4-22.8-42.4c-1.6-18.4,7.9-28.8,10.6-31.4
				c0.4-0.4,0.9-0.7,1.5-0.9c1.2-0.4,2.7-0.3,3.8,0.4l5.1,2.8c0.1,0.1,0.3,0.1,0.4,0l2.6-1.4c0.2-0.1,0.3-0.4,0.2-0.5l-5.1-9.2
				c-0.1-0.2-0.3-0.3-0.4-0.2l-4.3,1.8l0,0c-2.7,0.8-4.5,1.6-4.9,1.7c0,0-0.1,0-0.1,0.1C90.3,45.4,93,68.6,93,68.9l0,0
				c2.4,42.8,30.6,48.9,34.5,49.5c0.3,0,0.4-0.2,0.4-0.4v-8.3c0-0.1,0-0.2-0.1-0.2V78.9H132.9z"/>
			<path class="st0" d="M221.4,42.4c-8.2,0.2-13.8,6.1-13.8,14.2c0.2,8.4,5.4,14,13,13.8c8.7-0.2,14.7-6.6,14.6-15.4
				C235,47.1,229.7,42.2,221.4,42.4z M228.9,63.9c-2,5.3-9.1,6.1-12.7,1.7c-2.6-3.3-3.2-7.2-3.5-11.9c0.2-0.8,0.4-2.4,0.8-3.9
				c0.9-3,2.9-4.9,6.1-5.3c3.3-0.4,6,0.7,7.7,3.6C230.4,53,230.9,58.5,228.9,63.9z"/>
			<path class="st0" d="M140,69.7c-0.1-0.6-0.1-1.1-0.2-1.7c-0.5,0-0.9,0-1.2,0c-1.5,0.2-2.4-0.4-2.3-2c0-0.5-0.1-1.1-0.1-1.6
				c-0.2-4.9-0.2-9.8-0.4-14.6c-0.2-3.9-2.5-6.2-6.3-7c-4-0.9-7.5,0.4-11,2.3c-1.7,1-2.4,2-2,3.8c0.1,0.5,0.5,1,0.8,1.5
				c0.4-0.4,0.8-0.7,1.1-1.2c0.5-0.9,0.7-2.3,1.5-2.8c2.7-1.6,5.5-1.7,8.3-0.2c2.6,1.4,3.2,3.9,3.2,6.7c-1.8,0.4-3.5,0.6-5.1,1.1
				c-2.6,0.6-5.2,1.2-7.5,2.2c-4.1,1.9-5.7,7.8-3.4,11.4c1.8,2.8,8,4.2,11.1,1.1c1.4-1.3,3.1-2.4,5.1-3.9v4.9L140,69.7L140,69.7z
				 M131.3,61.5c0,0.4-0.1,1.1-0.4,1.3c-1.7,1.4-3.3,3-5.2,3.9c-2.8,1.2-5.2,0.1-6.2-2.2c-1.1-2.5-0.1-5.9,2.4-6.9
				c2.9-1.2,6-2.1,9.5-3.3C131.3,57.1,131.3,59.3,131.3,61.5z"/>
			<path class="st0" d="M143.1,61.2c0.4,0,1,0,1.4,0c0.1,0.3,0.1,0.4,0.1,0.6c0.1,4.5,0.8,5.5,5.2,6.4c2.6,0.5,5.1,0.5,7.4-1.3
				c1.3-1.2,2-2.7,1.8-4.4c-0.3-1.9-1.6-2.8-3.2-3.3c-2.2-0.6-4.4-1.1-6.7-1.6c-4.7-1.2-6.4-2.9-6.4-6.7c0-4,2.4-6.9,6.5-8
				c3.6-0.9,8.3-0.4,11.8,1.2c-0.1,2-0.2,4-0.4,6.6c-0.7-0.4-1.5-0.7-1.6-1.1c-1-3.9-3.6-5.7-7.8-5.1c-2.8,0.4-4.5,2-4.5,4.4
				c-0.1,1.9,0.7,3.2,2.5,3.6c2.6,0.7,5.2,1.4,7.8,2c2.8,0.6,5.1,1.8,5.8,4.9c0.6,3.1-0.4,5.7-2.7,7.8c-2.8,2.7-6.3,3.3-10,3.2
				c-2.1-0.1-4.3-0.7-6.4-1c-1.2-0.2-1.3-0.7-1.2-1.9C142.9,65.5,142.9,63.5,143.1,61.2L143.1,61.2z"/>
			<path class="st0" d="M174.1,44.8c2.5,0,5,0,7.4,0c0.6,2.3,0.4,2.6-1.8,2.6c-1.9,0-3.7,0-5.6,0c-0.1,0.6-0.2,1.2-0.2,1.6
				c0.1,4.8,0,9.6,0.3,14.4c0.2,3.1,2.5,4.3,5.4,3c0.4-0.2,1.1-0.2,1.6-0.4c-0.2,0.5-0.3,1.2-0.6,1.6c-2.1,2.6-4.6,3.4-7.7,2.4
				c-2.4-0.7-3.6-2.3-3.6-5c-0.1-5.1,0-10.1,0-15.2c0-0.6,0-1.3,0-2.2c-1.5,0-2.9,0-4.3,0c-0.1-0.2-0.2-0.4-0.3-0.6
				c0.5-0.4,1.1-0.8,1.6-1.1c3.6-1.6,2.8-0.6,2.9-4.5c0-1.1,0.2-2.2-0.1-3.2c-0.4-2,0.4-2.8,2.1-3.4c0.9-0.3,1.7-0.8,2.8-1.3
				C174.1,37.5,174.1,41.1,174.1,44.8L174.1,44.8z"/>
			<path class="st0" d="M195.1,42.5c0,2,0,3.8,0,5.8c0.2,0.1,0.3,0.2,0.4,0.3c0.9-1.1,1.8-2.1,2.7-3.2c1.6-2,3.6-3.2,6.2-2.9
				c1.2,0.1,2,0.5,1.7,2c-0.4,1.8-0.4,3.6-0.5,5.7c-0.5-0.3-1.1-0.4-1.3-0.8c-2.8-3.1-6.9-2.3-8.2,1.7c-0.5,1.8-0.7,3.8-0.7,5.7
				c-0.1,2.7,0,5.4,0.3,8.1c0.3,3.1,0.6,3.4,3.9,3.5c0.8,0,2-0.3,1.4,1.4c-5.1,0-10.2,0-15.3,0c-0.1-0.2-0.2-0.3-0.3-0.4
				c0.4-0.4,0.8-0.9,1.2-1c4-0.8,4-0.8,4-4.9c0-4.5,0-9.1,0-13.7c0-3.2-0.4-3.5-3.5-3.6c-0.3,0-0.6,0.1-0.9-0.1
				c-0.3-0.1-0.6-0.4-0.6-0.6c0-0.4,0.4-0.8,0.6-0.9C189,43.8,191.9,43.2,195.1,42.5L195.1,42.5z"/>
			<path class="st1" d="M235.4,73.9c0,2.8,0,5.3,0,8c-22.4,0-44.7,0-67.1,0c0-2.7,0-5.3,0-8C190.6,73.9,212.9,73.9,235.4,73.9
				L235.4,73.9z"/>
			<path class="st1" d="M233.3,92.9c-2.5-4.6-6.7-6.4-11.6-6.4c-5.5,0-9.9,2.1-12.4,7.1c-2.8,5.6-2.8,11.4-1.2,17.3
				c1.4,5,5,7.8,9.9,8.8c4.5,0.9,9,0.2,13.3-1.2c1.9-0.6,2.6-1.7,2.4-3.6c-0.1-1.4-0.5-1.7-2-1.2c-2.8,0.8-5.5,1.7-8.3,2
				c-6.1,0.5-11-2.7-10.6-11.3h2.2c5.8,0,11.5,0,17.3,0c1.4,0,2.5-0.4,2.6-2C235.3,99.1,234.9,95.9,233.3,92.9z M229.5,100.4h-16.8
				c0.4-3.8,1.5-7.1,5.1-8.7c3-1.3,6-1.2,8.7,0.8C229.1,94.3,229.7,97.2,229.5,100.4z"/>
			<path class="st1" d="M177.4,92c1.2-1,1.9-1.7,2.7-2.4c3-2.7,6.5-3.5,10.4-2.8c4.1,0.7,7.3,4.1,7.8,8.5c0.4,2.9,0.4,5.9,0.4,9
				c0.1,4.3-0.1,8.8,0.1,13.1c0.1,1.8-0.7,2.2-2.2,2.2c-0.4,0-0.7,0-1.1,0c-1.7,0.1-2.3-0.5-2.3-2.3c0.1-5.5,0.1-10.9,0-16.4
				c0-2-0.3-4-0.9-5.8c-1.2-3.5-4.9-5-8.1-3.2c-2.2,1.2-4,3.2-5.9,5c-0.4,0.4-0.4,1.3-0.4,2c0,6.1,0,12.2-0.1,18.4
				c0,0.7-0.4,2-0.8,2c-1.4,0.2-2.9,0-4.3-0.2c-0.2,0-0.3-0.9-0.3-1.3c0-9.7,0-19.3,0-29c0-1.3,0.5-1.9,1.9-1.8c0.5,0,1.1,0,1.6,0
				c1.2,0,1.6,0.5,1.6,1.7C177.3,89.7,177.4,90.6,177.4,92L177.4,92z"/>
			<path class="st1" d="M146.2,96.8c0,6.8,0,13.7,0,20.5c0,2.2-0.2,2.3-2.8,2.3c-2.6,0-2.8-0.2-2.8-2.3c0-13.7,0-27.2,0-40.9
				c0-2.2,0.3-2.5,2.8-2.5c2.5,0,2.7,0.2,2.7,2.5C146.2,83.2,146.2,90,146.2,96.8L146.2,96.8z"/>
			<path class="st1" d="M156.6,103.3c0-4.7,0.1-9.3,0-14c0-1.7,0.6-2.3,2.2-2.1c0.5,0,1.1,0,1.6,0c1.2,0,1.9,0.5,1.9,1.9
				c0,9.6,0,19.2,0,28.8c0,1.3-0.6,1.9-1.8,1.9c-0.5,0-1.1,0-1.6,0c-1.7,0.1-2.3-0.5-2.3-2.3C156.7,112.7,156.6,108,156.6,103.3
				L156.6,103.3z"/>
			<path class="st1" d="M159.1,80.9c-2.5,0-3.3-0.8-3.3-3.2c0-2.5,1-3.4,3.6-3.4c2.6,0,3.3,0.8,3.3,3.4
				C162.8,80.4,162.1,81,159.1,80.9L159.1,80.9z"/>
		</g>
		<path class="st2" d="M16.3,24.3c-0.2,2,1.2,5.1,2.3,7.8C5.6,46-0.3,66.7,9.1,97.8c-1-2.1-28-64.1,16.3-88.2
			c-0.4,0.4-0.9,0.8-1.3,1.2C17.7,17.7,16.4,22.2,16.3,24.3z"/>
		<path class="st2" d="M74.5,7.8L74.5,7.8c-19.3,3-39.9,9.4-53.5,22.6c-1.2-2.9-1.9-5-1.8-5.9c0.1-1.5,1-5.6,7.2-12.2
			c4.5-4.8,8.7-5.1,11.2-5.2C38.3,7,38.8,7,39.2,6.9c1.2-0.3,2.1-0.8,3.4-1.5c1.2-0.6,2.6-1.4,4.7-2.3c4.3-1.8,8-2.2,15.2-1.7
			C67.7,1.8,71.8,5.4,74.5,7.8z"/>
		<path class="st2" d="M128.8,6.5c0,0-23.7-2.7-50.2,1c-0.4-0.4-1-0.8-1.5-1.3c-2.2-2-5.2-4.6-9.2-6C84.1-0.4,104.1,1.4,128.8,6.5z"
			/>
		<path class="st2" d="M136.2,149.8c0,0,150.4,16.7,118-91.3C254.2,58.5,312,186,136.2,149.8z"/>
		<g>
			<polyline class="st3" points="40,47.9 56.6,52.4 82.9,54.4 82.8,47 71,47.2 43.1,38.9 38.1,37 37.9,41.8 40,47.9 			"/>
			<polygon class="st3" points="28.8,33.5 32.1,31.8 40.2,31.2 40.4,37.5 65.2,45.9 80,47.2 81.4,43.2 90,37.8 94.8,33.8 95.3,24.5 
				88.4,18 74.6,9.7 64.7,2.5 50.8,2.1 40.4,6.8 30.9,9.2 21.5,19.3 20.2,25.9 22.4,31.3 25.2,34.3 			"/>
			<g>
				<polyline class="st4" points="35.7,85.4 28.8,83.2 24.2,76.9 24.8,68.4 27.3,65.8 31.9,66.6 35.4,69.9 37.9,58.2 40.8,48.3 
					60.7,53.2 77.7,54.2 77.6,58.5 77.6,75.3 80.7,74.9 87,73.3 88.7,77.9 86.5,84.2 78,88.4 77.2,80.4 70.6,89.3 58.1,104 
					53.7,103.5 49.3,103.7 43.9,92.3 41.2,85.9 35.6,78 				"/>
				<path class="st5" d="M41.4,60l1,4.8c0,0,1.8-2.2,4.1-2.1c2.3,0.1,4.8,3.2,4.8,3.2l0.9-5C52.1,60.9,48.7,54.4,41.4,60z"/>
				<path class="st5" d="M68.4,60l-1,4.8c0,0-1.8-2.2-4.1-2.1c-2.3,0.1-4.8,3.2-4.8,3.2l-0.9-5C57.7,60.9,61.1,54.4,68.4,60z"/>
				<g>
					<polygon class="st5" points="32.8,66.1 35.4,69.5 39.9,50.4 41.5,48.6 38.4,46.9 33.9,58.3 					"/>
					<path class="st6" d="M35.4,70.5c-0.4,0-0.6-0.2-0.8-0.4L32,66.7c-0.2-0.2-0.3-0.5-0.2-0.8l1.2-7.8c0-0.1,0-0.2,0.1-0.3
						l4.5-11.4c0.1-0.3,0.4-0.4,0.6-0.6c0.3-0.1,0.6-0.1,0.8,0.1l3,1.8c0.3,0.2,0.4,0.4,0.5,0.7c0.1,0.3,0,0.6-0.3,0.8l-1.4,1.5
						l-4.4,18.8c-0.1,0.4-0.4,0.7-0.8,0.8C35.5,70.5,35.5,70.5,35.4,70.5z M33.9,65.8l1.1,1.3l3.9-17c0-0.2,0.1-0.4,0.3-0.4l0.7-0.8
						L39,48.4l-4.1,10.2L33.9,65.8z"/>
				</g>
				<polyline class="st5" points="35.3,78.5 36.1,88.7 38.7,106.2 45.4,119.5 45.9,125.3 48.9,131 47.4,131.3 47.6,139.3 50.6,143 
					48.5,147.8 51.3,151.9 54.5,153 57.2,151.4 60.2,142.4 59.7,137.7 61.5,134.3 61.1,126.5 65.2,123.5 74.2,105.1 77.8,91.1 
					77.1,80.5 74.8,82.7 62.4,100.5 56.6,104.6 54.9,102.9 49.3,103.7 43.1,89.4 36.1,80 				"/>
				<polygon class="st5" points="52.6,157.9 56.6,158 59,164.5 58.7,172.5 51.4,176.3 45.8,175.9 43.4,173.7 49.8,170.2 52.6,165.2 
					52.6,159.5 				"/>
				<path class="st7" d="M96.7,130.7"/>
				<path class="st7" d="M32.6,30.8c0,0,0.4-1.3,1.7-1.5s4.7-0.7,7.1-4.1c2.4-3.4,4.2-6.6,5-6.1c0.8,0.4-2,8.8-2,8.8L39,31.9l-3,0.3
					l-2.6-0.4L32.6,30.8z"/>
				<path class="st7" d="M48.9,40.1c0,0,22.8,5.4,31.1,3.5h1.2l-1.5,4.2L68.5,47L55,43.2l-7.6-2.7L48.9,40.1z"/>
				<path class="st8" d="M65.8,122.5c0,0,7.9-3.1,12.3-8.5l1.2,5.1l-8.1,6.3l-9.5,3.9L62,126L65.8,122.5z"/>
				<path class="st8" d="M39.1,119.8c0,0,3,1.7,6.6,2.6l0.4,4.3l-6-2l-2.7-1.4l0.2-2.8L39.1,119.8z"/>
				<path class="st9" d="M38.4,116.5c0,0,3.3,1.7,6,2.1l-1.8-3l-1.7-2.5l-2,0.1L38.4,116.5"/>
				<path class="st9" d="M69.7,115.3c0,0,4.2-1.9,7.7-4.7l-2-3.6l-2-0.1L69.7,115.3z"/>
				<path class="st5" d="M53.4,91.9c0,0-2.7-6.2-10.9-2c-8.3,4.3-9,7.3-18.5,8.1C23.9,98,43,109.7,53.4,91.9z"/>
				<path class="st5" d="M53.4,92.4c0,0,4.4-4.3,10.2-3.7S78.8,91,83,90.4c4.2-0.6,6.7-1.8,6.7-1.8s-10.5,9.1-14.5,10.9
					c-4.3,2-9,2.8-14,0.3S53.4,92.4,53.4,92.4z"/>
				<path class="st8" d="M60.4,140.1c0,0,8.5,9.9,9,15.2l-1.2-10.4l-5.3-7.5l-3-1l-0.7,1.6L60.4,140.1z"/>
				<path class="st9" d="M60.3,144.8c0,0,8.1,9.2,8.8,13.8c0.7,4.6,0.1,5.6,0.1,5.6l-3.6-7.5l-7-7.9L60.3,144.8z"/>
				<path class="st9" d="M47.9,139.1c0,0-4.5,5.4-5.2,7.6c-0.7,2.3-5.4,8.7-10.2,11.4l5.5-8.9l2.8-9.1l6.2-5.4L47.9,139.1z"/>
				<path class="st8" d="M31.9,160c0,0,10.5-6.7,12.3-10.3c1.9-3.6,4.4-7.2,4.4-7.2l2,0.5l-2.3,4.1l0.7,3.3l-9,8.3l-10,3.5v-1.3
					L31.9,160z"/>
				<path class="st10" d="M52.4,85.7c0,0,3.4-3.5,3.7-6.3c0.4-2.8-0.4-7.5-0.4-7.5L52.7,82l-2,3.2l1.5,0.8L52.4,85.7z"/>
				<path class="st10" d="M81.8,75c0,0,3.6-0.4,4,1.7c0.4,2-1,8.1-2.4,9.3s4.8-3,4.8-3l0.5-7L88,73.8l-3.6-0.6L81.8,75z"/>
				<path class="st10" d="M32,67c0,0-3.3,0.4-4.3,2c-1,1.7-1.6,6.7-0.5,8.7c1.1,2,3.1,5.2,3.1,5.2l-5.4-3.9L25,67.7l1.7-1.9l3.3,0.4
					L32,67z"/>
				<path class="st11" d="M57.9,126.5c0,0,4.4-4.8,7.6-10.6c3.2-5.7,8.4-17.7,8.4-17.7l1.5,0.3l-7.1,18.1l-6.4,9.6l-0.2,6.5
					l-2.9,5.4l1.6,3.7l-3.3,9.2l-1.2,1.5h-1.8c0,0,3-8,3-9.8c-0.1-1.8-1.4-3.2-1.4-3.2S59.7,132.9,57.9,126.5z"/>
				<path class="st11" d="M38.7,102.2l3.4-1c0,0,1.7,14.9,8.3,20.9l-2.1,0.6l4.5,10.2l-2.8-0.6c0,0-0.6,8.2,1.8,11.3l-2.9-2.5
					l-1.6-7.7l0.5-4l-1.8-6.1l-0.5-4.5l-4.6-7.4L38.7,102.2z"/>
				<path class="st11" d="M49.2,175.5c0,0,9.6-3.9,9.2-12.2l0.9,4.7l-1.3,5l-5.9,3.7l-2-0.6L49.2,175.5z"/>
				<ellipse transform="matrix(0.5 -0.866 0.866 0.5 -27.2822 73.22)" class="st11" cx="49.8" cy="60.2" rx="1.3" ry="2.3"/>
				
					<ellipse transform="matrix(0.7653 -0.6437 0.6437 0.7653 -24.6895 52.7758)" class="st11" cx="60" cy="60.2" rx="2.3" ry="1.3"/>
				<path class="st6" d="M35.4,70.9c-0.3,0-0.6-0.2-0.8-0.4l-2.5-3.1c-0.2-0.2-0.3-0.4-0.3-0.7c0.4-11.2,4.6-19.1,5.8-20.9
					c-1.6-5.9,0.1-9.2,0.2-9.3c0.3-0.4,0.8-0.6,1.2-0.4c0.2,0.1,18.9,7.5,28.8,9.4c9.6,1.9,14.6,0.8,14.6,0.7c0.4-0.1,1,0.2,1.2,0.6
					c0.9,2.2,0.2,7.1,0.1,7.7c-0.1,0.5-0.5,0.9-1,0.9c-22.8-0.3-37.5-4.6-40.9-5.7l-0.1,0.1c-3.4,5-5.2,20.1-5.2,20.3
					c-0.1,0.4-0.4,0.7-0.7,0.9C35.6,70.9,35.5,70.9,35.4,70.9z M33.9,66.5l0.8,1c0.7-4.6,2.4-14.6,5.2-18.8l0.5-0.8
					c0.3-0.4,0.8-0.5,1.2-0.4c0.2,0.1,15,5.4,40.1,5.9c0.2-1.6,0.3-3.6,0.1-5c-2,0.3-6.8,0.6-14.6-0.9c-8.8-1.7-24.1-7.5-28.1-9.1
					c-0.4,1.2-0.6,3.7,0.4,7.4c0.1,0.3,0,0.6-0.1,0.9C39.5,46.7,34.4,54.7,33.9,66.5z"/>
				<path class="st6" d="M80.2,48.3c-0.5,0-1-0.4-1-1c0-0.2-0.2-4.6,4.3-7.2c0.8-0.4,1.6-0.9,2.5-1.3c3.4-1.8,7.6-4,8.2-6.5
					c0.7-3.3,1.1-7.2-3.1-11.1c-3.3-2.9-9.5-6.6-13.2-8.7c-1.3-0.8-2.5-1.4-3.1-1.9c-0.6-0.4-1.2-1-2-1.7C70.3,6.7,66.5,3.4,61.5,3
					c-6.7-0.4-10.1,0-14.1,1.6c-2,0.8-3.3,1.5-4.3,2.1c-1.2,0.6-2,1.2-3.1,1.4c-0.4,0.1-1,0.2-1.6,0.2C36,8.5,32.1,8.8,28,13.2
					c-5.8,6.1-6.6,9.9-6.7,11.4c-0.1,1.1,0.6,3.2,2,6.4c0.1,0.2,0.2,0.4,0.2,0.4c0.5,1.2,1.3,1.9,2.4,1.9c0.8,0,1.7-0.5,2.7-1.1
					c1.2-0.7,2.6-1.5,4.3-1.5c1.5,0,2.3,0.1,2.9,0.3c0.5,0.1,0.9,0.2,1.6,0.1c1.7-0.3,4.9-1.9,5.9-3.4c1.2-2,2.6-5.4,2.8-8.3
					c0.1-0.5,0.5-1,1.1-1c0.5,0.1,1,0.5,1,1.1c-0.3,3.3-1.7,7-3.1,9.2c-1.4,2.4-5.5,4.1-7.3,4.3c-1.1,0.2-1.7,0-2.3-0.1
					c-0.5-0.1-1.2-0.3-2.5-0.2c-1.2,0-2.2,0.6-3.4,1.2s-2.3,1.3-3.6,1.3c-1.4,0-3.3-0.5-4.3-3.1c0-0.1-0.1-0.2-0.2-0.4
					c-1.1-2.5-2.3-5.5-2.2-7.4c0.1-2,1.2-6.2,7.2-12.6c4.7-5,9.2-5.3,11.7-5.5c0.5,0,1-0.1,1.2-0.2C40,6,40.8,5.6,41.9,5.1
					c1.1-0.6,2.5-1.3,4.5-2.2c4.3-1.8,8-2.2,15-1.7c5.7,0.4,9.8,4.1,12.5,6.4c0.7,0.6,1.4,1.2,1.9,1.5c0.5,0.4,1.6,1,2.9,1.8
					c4.1,2.3,10.2,5.9,13.6,9c4.8,4.3,4.6,9.1,3.7,13c-0.7,3.5-5.2,5.8-9.2,7.9c-0.9,0.4-1.7,0.9-2.5,1.3c-3.5,2-3.3,5.2-3.3,5.3
					C81.3,47.8,80.9,48.3,80.2,48.3L80.2,48.3z"/>
				<path class="st6" d="M40.9,38.1L39.1,37c0,0,0,0,0,0.1c0,0,0.6-1.3-0.5-5.5c-0.2-0.5,0.2-1.1,0.7-1.2c0.5-0.2,1.1,0.2,1.2,0.7
					C41.9,36,41.1,37.7,40.9,38.1z"/>
				<path class="st6" d="M51.2,66.6c-0.3,0-0.4-0.1-0.6-0.3c-0.6-0.8-2.6-2.8-4.3-2.9c-2-0.1-3.5,1.8-3.5,1.9
					c-0.2,0.3-0.4,0.4-0.8,0.3c-0.3-0.1-0.5-0.3-0.5-0.6l-1-4.8c-0.1-0.3,0.1-0.6,0.3-0.8c2.7-2,5.1-2.8,7.5-2.3
					c3,0.7,4.3,3.3,4.4,3.5c0.1,0.2,0.1,0.4,0.1,0.4l-0.9,5c-0.1,0.3-0.3,0.5-0.5,0.6C51.3,66.6,51.3,66.6,51.2,66.6z M46.2,61.9
					c0.1,0,0.1,0,0.2,0c1.7,0.1,3.3,1.3,4.3,2.3l0.5-3.1c-0.4-0.5-1.4-2-3.3-2.5c-1.7-0.4-3.6,0.2-5.8,1.7l0.6,2.9
					C43.6,62.6,44.8,61.9,46.2,61.9z"/>
				<path class="st6" d="M58.6,66.6c-0.1,0-0.1,0-0.2,0c-0.3-0.1-0.5-0.4-0.5-0.6L57,61c0-0.2,0-0.4,0.1-0.4s1.4-2.8,4.4-3.5
					c2.3-0.5,4.8,0.3,7.5,2.3c0.3,0.2,0.4,0.4,0.3,0.8l-1.1,4.7c-0.1,0.3-0.3,0.5-0.5,0.6c-0.3,0.1-0.6,0-0.8-0.3
					c0,0-1.5-1.9-3.5-1.9c-1.6,0.1-3.6,2.1-4.3,2.9C59,66.5,58.8,66.6,58.6,66.6z M58.5,61.1l0.5,3.1c1.1-1,2.7-2.2,4.3-2.3
					c1.5-0.1,2.8,0.7,3.6,1.3l0.6-2.9c-2.1-1.5-4.1-2.1-5.8-1.7C59.9,59,58.9,60.4,58.5,61.1z"/>
				<path class="st6" d="M67.2,40.9c0,0,0,1.5,0.8,1.6c0.8,0.1,1.3-0.1,1.6-1.7c0.3-1.6,0.4-4.2,1-5.4c0.5-1.2,1.8-4.8,1.8-4.8
					s-2.4,1.6-3.8,4.1C67.5,36.7,66.8,38.7,67.2,40.9z"/>
				<path class="st6" d="M72.3,41.4c0,0-0.4,1.4,0.4,1.8c0.7,0.3,1.3,0.3,2-1.2c0.6-1.4,1.5-3.9,2.3-5.1c0.8-1.1,2.9-4.2,2.9-4.2
					s-2.8,1-4.7,3C73.7,37.4,72.6,39.1,72.3,41.4z"/>
				<path class="st6" d="M59.2,39.3c0,0-0.6,1.3-1.3,1.2c-0.7-0.2-1.1-0.6-0.7-2.1c0.4-1.5,1.3-4,1.4-5.3C58.7,31.7,59,28,59,28
					s1.3,2.4,1.5,5.1C60.8,35.3,60.5,37.4,59.2,39.3z"/>
				<path class="st6" d="M54,37.7c0,0-0.4,1.1-1,1c-0.6-0.1-1.1-0.4-1-1.6c0.1-1.2,0.4-3.1,0.4-4.2c-0.1-1.1-0.4-3.8-0.4-3.8
					s1.6,1.7,2.2,3.8C54.7,34.6,54.7,36.2,54,37.7z"/>
				<path class="st6" d="M48.5,36.5c0,0-0.4,1.1-1,1s-1.1-0.4-1-1.6c0.1-1.2,0.3-2,0.4-3.1c0.1-1,0.2-4.2,0.2-4.2s1,1,1.6,3.1
					C49.1,33.4,49.2,35,48.5,36.5z"/>
				<ellipse class="st6" cx="62.2" cy="69.4" rx="2.1" ry="2.8"/>
				<ellipse class="st6" cx="46.7" cy="69.4" rx="2.1" ry="2.8"/>
				<g>
					<path class="st5" d="M77.3,54.3c0,0,1.8,10.9,0,21.6l4.4-1.8c0,0,0.9-11.6-0.9-19.7L77.3,54.3z"/>
					<path class="st6" d="M77.3,76.9c-0.3,0-0.4-0.1-0.6-0.3c-0.3-0.3-0.4-0.6-0.4-1c1.7-10.4,0.1-21.2,0-21.3
						c-0.1-0.3,0-0.6,0.3-0.8c0.2-0.3,0.5-0.4,0.8-0.4l3.5,0.1c0.4,0,0.9,0.4,1,0.8c1.9,8.1,1,19.5,0.9,20c0,0.4-0.3,0.7-0.6,0.9
						l-4.4,1.8C77.6,76.9,77.4,76.9,77.3,76.9z M78.5,55.4c0.4,2.9,1.2,10.8,0.1,18.9l2.2-0.9C81,71,81.3,62,80,55.4L78.5,55.4z"/>
				</g>
				<path class="st6" d="M41.4,49.4c-0.2,0-0.3,0-0.4-0.1c-2.2-1-3.1-2.7-3.1-2.8c-0.3-0.5-0.1-1.2,0.4-1.4c0.5-0.3,1.2-0.1,1.4,0.4
					c0,0,0.6,1.2,2.2,1.9c0.5,0.3,0.7,0.8,0.5,1.3C42.1,49.2,41.7,49.4,41.4,49.4z"/>
				<path class="st6" d="M53.8,64.4c0,0-0.2-1,0.4-1c0.6,0,0.8,1,0.9,1.7c0.1,0.6,1.3,8.2,0.6,12.1c-0.7,3.7-2.5,6.4-3,7.1
					c-0.6,0.7-1,1.2-1,1.2s0.9,0.7,1.7,1c0.4,0.1,1.8,0.7,1.6,1.3c-0.3,0.7-1.2,1.1-2.7,0.5c-1.4-0.5-3.2-2.4-3.2-2.6
					c0-0.4-0.3-0.9,1-2c0.8-0.7,2.3-2.2,3.3-6.1c0.7-2.7,1.2-5.5,1-8.7C54.2,66.7,53.8,64.4,53.8,64.4z"/>
				<path class="st6" d="M78.7,88.9c-0.4,0-0.9-0.4-1-0.8c-0.1-0.5,0.3-1.1,0.8-1.2c0,0,3.6-0.7,5.9-2.5c2.2-1.7,3.6-5.9,3-9.2
					c-0.1-0.4-0.3-0.6-0.4-0.7c-1.2-0.6-4,0.1-5.7,0.8c-0.5,0.2-1.2,0-1.3-0.5c-0.2-0.5,0-1.2,0.5-1.3c0.5-0.2,5.1-2.1,7.5-0.7
					c0.8,0.4,1.3,1.2,1.5,2.2c0.7,4.2-1,9.1-3.8,11.2c-2.8,2-6.7,2.8-6.7,2.9C78.9,88.9,78.8,88.9,78.7,88.9z"/>
				<path class="st6" d="M34.5,86.2c-0.1,0-0.2,0-0.3,0c-1.4-0.4-6.1-2-8.8-4.9c-2.6-2.8-3.2-7.5-1.8-13.1c0.4-1.4,1.2-2.4,2.3-2.9
					c2.8-1.3,6.7,0.4,7.2,0.7c0.5,0.3,0.7,0.9,0.4,1.3c-0.3,0.5-0.9,0.7-1.3,0.4l0,0c-1-0.4-3.8-1.4-5.5-0.7c-0.6,0.3-1,0.8-1.2,1.6
					c-1.2,5.1-0.8,9.1,1.2,11.3c2.3,2.5,6.7,4,7.7,4.3c0.5,0.2,0.9,0.7,0.7,1.2C35.4,85.9,35,86.2,34.5,86.2z"/>
				<path class="st6" d="M57.2,86c0,0-0.6-1.9,0.4-2c1.1-0.2,1.4,0.7,1.4,1.1c0,0.4,0,2.8-2.5,4.1C56.6,89.1,57.8,87.1,57.2,86z"/>
				<g>
					<path class="st3" d="M49,93.5c0,0,0.8,5.6,1.1,6.5c0.3,0.8,1.3,0,3.5,0c2.1,0,2.9,0.8,4.1,0.6C58.9,100.6,69,87.4,70.4,81
						C70.4,81,59.1,92.5,49,93.5z"/>
					<path class="st6" d="M57.3,101.4c-0.5,0-1.1-0.2-1.6-0.3c-0.6-0.2-1.2-0.4-2.3-0.4c-0.8,0-1.5,0.1-2,0.3
						c-0.7,0.2-1.9,0.4-2.2-0.8c-0.3-0.9-1.1-5.9-1.2-6.6c0-0.2,0-0.4,0.2-0.6c0.1-0.2,0.4-0.3,0.5-0.3c9.8-1.1,20.9-12.2,20.9-12.3
						c0.3-0.3,0.6-0.3,0.9-0.2c0.3,0.2,0.4,0.5,0.4,0.8c-1.3,6.1-11.4,20-13.4,20.2C57.6,101.4,57.4,101.4,57.3,101.4z M57.4,99.9
						L57.4,99.9L57.4,99.9z M53.4,99.2c0.1,0,0.1,0,0.2,0c1.2,0,2,0.3,2.7,0.4c0.5,0.2,0.9,0.3,1.2,0.2c1.3-0.8,8.4-9.9,11.3-16.2
						C65,86.9,57.3,93,49.9,94.2c0.3,2,0.7,4.5,0.9,5.4c0.2,0,0.4-0.1,0.4-0.1C51.8,99.4,52.5,99.2,53.4,99.2z"/>
				</g>
				<path class="st6" d="M51.4,124.6c-0.1,0-0.2,0-0.3,0c-16.2-4.9-16.6-44.8-16.6-46.5c0-0.4,0.3-0.8,0.7-1s0.9,0,1.2,0.4
					c0.3,0.4,6.9,9.6,8.6,13.8c0.2,0.5-0.1,1.2-0.5,1.3s-1.2-0.1-1.3-0.5c-1.1-2.7-4.3-7.5-6.4-10.7c0.4,9.8,2.8,37.5,15,41.2
					c0.5,0.2,0.8,0.7,0.7,1.2C52.3,124.3,51.8,124.6,51.4,124.6z"/>
				<g>
					<path class="st5" d="M53.4,91.9c0,0-2.7-6.2-10.9-2c-8.3,4.3-9,7.3-18.5,8.1C23.9,98,43,109.7,53.4,91.9z"/>
					<path class="st6" d="M37.3,103c-7.5,0-13.8-3.8-14-4c-0.4-0.3-0.7-0.9-0.5-1.4c0.1-0.5,0.6-0.9,1.2-1c6.2-0.5,8.5-2,11.9-4.3
						c1.7-1.1,3.6-2.3,6.2-3.7c3.2-1.7,6-2,8.5-1.2c3,1.1,4.2,3.7,4.2,3.8c0.2,0.4,0.2,0.8-0.1,1.2c-3.1,5.3-7.3,8.7-12.3,9.9
						C40.5,102.9,38.8,103,37.3,103z M28.2,98.6c3.3,1.2,8.3,2.6,13.2,1.3c4.2-1.1,7.7-3.8,10.4-8.2c-0.4-0.5-1.2-1.4-2.4-1.9
						c-1.7-0.6-3.9-0.3-6.4,1.1c-2.6,1.3-4.3,2.5-5.9,3.6C34.4,96.4,32.1,97.8,28.2,98.6z"/>
				</g>
				<path class="st6" d="M52.6,153.7l-0.3-0.2c-0.5-0.4-5.3-3.5-4.7-6.7c0.6-3,2.6-4.2,2.6-4.3l1.1,1.8c0,0-1.2,0.8-1.7,2.9
					c-0.3,1.3,2.1,3.4,3.6,4.3l2-0.1c1.6-1.7,3.9-5.7,4.3-8.3c0.4-2.6-1.5-4.7-1.5-4.7l1.5-1.4c0.1,0.1,2.7,2.9,2,6.5
					c-0.6,3.3-3.4,8-5.2,9.8l-0.3,0.3L52.6,153.7z"/>
				<path class="st6" d="M46.8,121.6c0,0,0.3,5.9,2.1,7.9c1.9,2,5.6,5,5.6,5s-5.5-0.7-7.4-3.9s-2.4-5.5-2.6-7.6
					c-0.1-1.6,0.3-3.4,0.3-3.4L46.8,121.6z"/>
				<path class="st6" d="M48.7,131.9c0,0-0.9,5.9,0.5,8.2c1.4,2.3,5.1,5.1,5.1,5.1s-5.9-0.3-7.5-4.4c-1.3-3.5-0.9-5.9-0.5-8
					c0.2-1.6,0.9-3.3,0.9-3.3L48.7,131.9z"/>
				<path class="st6" d="M60.6,127.4c0,0-0.3,5.8-1.8,8.1c-1.5,2.3-5.1,6.2-5.1,6.2s4.9-0.9,7.1-4.9c1.8-3.4,1.8-5.9,1.9-8.2
					c0.1-1.7-0.4-3.6-0.4-3.6L60.6,127.4z"/>
				<path class="st6" d="M53.2,127.2c0,0,2.2-0.4,3.7-0.7c1.5-0.3,0.4,2,0.4,2S55.7,128.9,53.2,127.2z"/>
				<path class="st6" d="M55.4,123.6c0,0-2.1-0.6-3.6-1.1c-1.5-0.4-0.6,2-0.6,2S52.7,125,55.4,123.6z"/>
				<path class="st6" d="M57.1,158.7h-5.7c-0.5,0-1-0.4-1-1v-4.3c0-0.5,0.4-1,1-1h5.7c0.5,0,1,0.4,1,1v4.3
					C58.1,158.2,57.6,158.7,57.1,158.7z M52.5,156.6h3.6v-2.2h-3.6V156.6z"/>
				<path class="st6" d="M50.4,177.2c-4.7,0-8.9-3-9.1-3.2c-0.4-0.3-0.5-0.7-0.4-1.2c0.2-0.4,0.5-0.7,1-0.7c3.5,0.1,5.3-0.7,8-3.6
					c2.1-2.3,1.8-8.3,1.5-10.3c0-0.3,0-0.5,0.3-0.8c0.2-0.2,0.4-0.4,0.7-0.4l3.4-0.1c0.3,0,0.6,0.1,0.8,0.4c4.6,5.3,3.8,12,3.7,12.2
					c0,0.1-0.4,4.4-6.2,6.9C52.9,177.1,51.7,177.2,50.4,177.2z M45.4,174c2.1,1,5.2,1.8,8,0.6c4.7-2,5-5.2,5-5.2
					c0-0.1,0.7-5.8-2.9-10.3l-1.8,0.1c0.2,2.4,0.4,8.1-2.1,10.8C49.4,172.3,47.6,173.5,45.4,174z"/>
				<path class="st6" d="M62,130.1c-0.4,0-0.9-0.4-1-0.8c-0.1-0.5,0.3-1.1,0.8-1.2c6.3-1.4,15.3-8.7,16.3-10.1
					c-0.1-1.2-1.9-8-3.2-9.6c-0.4-0.6-0.8-0.8-0.9-0.9c-0.4,0.2-0.9,0.1-1.2-0.2c-0.4-0.4-0.4-1.1,0-1.4c0.1-0.1,0.5-0.4,1.2-0.4
					c0.8,0,1.6,0.5,2.5,1.6c1.6,2,3.8,9.9,3.6,11.3c-0.3,1.7-10.9,10-17.9,11.6C62.2,130.1,62.1,130.1,62,130.1z M78.3,117.9
					L78.3,117.9L78.3,117.9z M74.4,107.4L74.4,107.4L74.4,107.4z"/>
				<path class="st6" d="M46.2,127.9c-0.2,0-0.3,0-0.4-0.1c-0.2-0.1-0.8-0.3-1.5-0.5c-4.5-1.5-7-2.6-7.5-3.7
					c-0.9-1.9,1.4-10.7,1.6-11c0.5-1.1,2.1-0.9,3-0.6c0.5,0.2,0.9,0.7,0.7,1.2c-0.2,0.5-0.7,0.9-1.2,0.7c-0.3-0.1-0.5-0.1-0.7-0.1
					c-0.4,1.6-1.7,7.7-1.4,9c0.7,0.7,4.9,2.2,6.3,2.7c0.9,0.3,1.4,0.4,1.7,0.6c0.5,0.3,0.7,0.8,0.5,1.3
					C47,127.7,46.6,127.9,46.2,127.9z"/>
				<path class="st6" d="M69.5,166.4c-0.4,0-0.8-0.3-1-0.6c-0.1-0.1-4.9-11.5-10.7-16.3c-0.4-0.4-0.5-1-0.2-1.4
					c0.4-0.4,1-0.5,1.4-0.2c4.1,3.3,7.5,9.2,9.5,13.2c0.1-4.3-0.2-11-1.6-15.4c-2.1-6.7-7.3-8.5-7.5-8.6c-0.5-0.2-0.8-0.8-0.6-1.3
					c0.2-0.5,0.8-0.8,1.2-0.6c0.3,0.1,6.3,2.2,8.8,9.9c2.4,7.4,1.6,19.9,1.5,20.4C70.4,165.8,70,166.2,69.5,166.4
					C69.7,166.4,69.6,166.4,69.5,166.4z"/>
				<path class="st6" d="M28.9,163.5c-0.4,0-0.7-0.2-0.9-0.5c-0.2-0.4-0.2-0.9,0.1-1.2c0.1-0.1,8.7-9.9,9.8-16.1
					c1.2-6.8,7.9-11.6,8.2-11.8c0.4-0.4,1.1-0.2,1.4,0.3c0.4,0.4,0.2,1.1-0.3,1.4c-0.1,0-6.3,4.4-7.4,10.5
					c-0.8,4.8-5.5,11.3-8.3,14.7c4.3-1.2,12.4-4.3,17-11c0.4-0.4,1-0.6,1.4-0.3c0.4,0.4,0.5,1,0.3,1.4
					C43.2,161,29.5,163.5,28.9,163.5C28.9,163.4,28.9,163.5,28.9,163.5z"/>
				<path class="st12" d="M50.2,97.1c0,0,0.9,0.4,2.9,0.3c0,0-0.3,0.6-2.6,0.9l-0.6,0.4l-0.4-1.2L50.2,97.1z"/>
				<path class="st6" d="M57.1,128.5c-0.5,0-1-0.4-1-0.9c-0.1-0.5,0.4-1.1,0.9-1.1c0.1,0,5.1-0.5,7.6-4.3c0.4-0.6,10.1-15.7,12-32.6
					c0.4-3.3,0.2-5.4,0-6.7c-1.5,2.6-4,5.9-6.9,9.9L68.8,94c-2.9,3.9-9.2,11.2-11.2,11.2c-0.7,0-1.4-0.4-2.1-0.6
					c-0.6-0.3-1.2-0.5-1.7-0.6c-0.5,0-1.2,0.2-1.8,0.4c-0.8,0.3-1.6,0.5-2.4,0.4c-1.1-0.1-2.5-1.8-4.3-4.9c-0.3-0.4-0.1-1.1,0.4-1.4
					c0.4-0.3,1.1-0.1,1.4,0.4c1.1,1.9,2.4,3.6,2.8,3.9c0.4,0,0.9-0.2,1.3-0.4c0.8-0.3,1.6-0.6,2.6-0.5c0.9,0,1.8,0.4,2.5,0.8
					c0.4,0.2,0.9,0.4,1.2,0.4c1.1-0.4,5.4-4.7,9.7-10.4l0.9-1.2c3.7-5,6.9-9.2,7.8-11.7c0.1-0.4,0.4-0.6,0.8-0.6
					c0.4-0.1,0.7,0.1,1,0.4c0.2,0.3,1.9,2.7,1.1,10.3c-1.9,17.3-11.9,32.8-12.2,33.5c-3,4.6-8.9,5.2-9.1,5.2
					C57.2,128.5,57.1,128.5,57.1,128.5z"/>
				<g>
					<path class="st5" d="M53.4,92.4c0,0,4.4-4.3,10.2-3.7S78.8,91,83,90.4c4.2-0.6,6.7-1.8,6.7-1.8s-10.5,9.1-14.5,10.9
						c-4.3,2-9,2.8-14,0.3S53.4,92.4,53.4,92.4z"/>
					<path class="st6" d="M67.7,102.5c-2.4,0-4.7-0.5-7-1.7c-5.2-2.7-8.1-7.6-8.3-7.9c-0.3-0.4-0.2-0.9,0.2-1.2
						c0.2-0.2,4.8-4.5,11-4c1.9,0.2,4.1,0.4,6.5,0.8c4.6,0.6,9.9,1.3,12.6,1c3.9-0.5,6.5-1.7,6.5-1.8c0.4-0.2,1-0.1,1.2,0.4
						s0.2,1-0.2,1.3c-0.4,0.4-10.7,9.2-14.7,11.2C73,101.8,70.3,102.5,67.7,102.5z M54.8,92.7c1,1.4,3.4,4.5,6.9,6.3
						c4.2,2,8.4,2,13.1-0.3c2.3-1.2,7.1-4.9,10.4-7.6c-0.6,0.2-1.3,0.3-2.1,0.4c-2.9,0.4-8.2-0.3-13.1-1c-2.3-0.4-4.5-0.6-6.4-0.8
						C59.5,89.3,56.1,91.6,54.8,92.7z M53.4,92.4L53.4,92.4L53.4,92.4z"/>
				</g>
				<path class="st11" d="M55.7,93.9c0,0,3.8-2.7,10.7-2s16.2,1.5,19.9-0.8l1.6-1.9l-6.5,1.6L71.5,90l-11.4-0.9l-5.9,3.5L55.7,93.9z
					"/>
				<path class="st6" d="M67.7,102.5c-2.4,0-4.7-0.5-7-1.7c-5.2-2.7-8.1-7.6-8.3-7.9c-0.3-0.4-0.2-0.9,0.2-1.2c0.2-0.2,4.8-4.5,11-4
					c1.9,0.2,4.1,0.4,6.5,0.8c4.6,0.6,9.9,1.3,12.6,1c3.9-0.5,6.5-1.7,6.5-1.8c0.4-0.2,1-0.1,1.2,0.4s0.2,1-0.2,1.3
					c-0.4,0.4-10.7,9.2-14.7,11.2C73,101.8,70.3,102.5,67.7,102.5z M54.8,92.7c1,1.4,3.4,4.5,6.9,6.3c4.2,2,8.4,2,13.1-0.3
					c2.3-1.2,7.1-4.9,10.4-7.6c-0.6,0.2-1.3,0.3-2.1,0.4c-2.9,0.4-8.2-0.3-13.1-1c-2.3-0.4-4.5-0.6-6.4-0.8
					C59.5,89.3,56.1,91.6,54.8,92.7z M53.4,92.4L53.4,92.4L53.4,92.4z"/>
				<path class="st11" d="M51,93.7c0,0-2.7-2.4-7.1-1.1c-4.4,1.3-9.6,6.4-16.2,5.8L25,98.2l11.5-4.5l8.4-5h4l2.5,0.7l1.3,3.3
					L51,93.7z"/>
				<path class="st6" d="M37.3,103c-7.5,0-13.8-3.8-14-4c-0.4-0.3-0.7-0.9-0.5-1.4c0.1-0.5,0.6-0.9,1.2-1c6.2-0.5,8.5-2,11.9-4.3
					c1.7-1.1,3.6-2.3,6.2-3.7c3.2-1.7,6-2,8.5-1.2c3,1.1,4.2,3.7,4.2,3.8c0.2,0.4,0.2,0.8-0.1,1.2c-3.1,5.3-7.3,8.7-12.3,9.9
					C40.5,102.9,38.8,103,37.3,103z M28.2,98.6c3.3,1.2,8.3,2.6,13.2,1.3c4.2-1.1,7.7-3.8,10.4-8.2c-0.4-0.5-1.2-1.4-2.4-1.9
					c-1.7-0.6-3.9-0.3-6.4,1.1c-2.6,1.3-4.3,2.5-5.9,3.6C34.4,96.4,32.1,97.8,28.2,98.6z"/>
			</g>
		</g>
	</g>
	<g id="Warstwa_x0020_1">
		<path class="st13" d="M587,105.5h-11.3h-27.9c-3.4,0-6.2,2.8-6.2,6.2c0,3.4,2.8,6.2,6.2,6.2h27.9H587h1.2v-0.1
			c2.9-0.6,5-3.1,5-6.1c0-3-2.2-5.6-5-6.1v-0.1C588.2,105.5,587,105.5,587,105.5z M773.2,86.8L773.2,86.8L773.2,86.8v49.9l0,0l0,0
			c0,3.4,2.8,6.2,6.2,6.2h24.9c17.2,0,31.2-14,31.2-31.2c0-17.2-14-31.2-31.2-31.2h-24.9C776,80.5,773.2,83.3,773.2,86.8L773.2,86.8
			z M785.7,130.4h18.7c10.3,0,18.7-8.4,18.7-18.7S814.7,93,804.4,93h-18.7V130.4z M490.8,107.3L490.8,107.3c1.1-1.1,2.6-1.7,4.1-1.8
			l0.1,0l0.2,0h12.5c3.4,0,6.2-2.8,6.2-6.2c0-3.4-2.8-6.2-6.2-6.2h-31.2v43.6c0,3.4-2.8,6.2-6.2,6.2l0,0c-3.4,0-6.2-2.8-6.2-6.2
			V86.8l0-0.2l0,0l0-0.2l0,0l0-0.2l0,0l0-0.2v0c0-0.1,0-0.2,0-0.3v0c0-0.1,0-0.2,0.1-0.3v0l0-0.1v0c0.5-2.3,2.4-4.1,4.7-4.7h0l0.1,0
			h0c0.1,0,0.2,0,0.3-0.1h0c0.1,0,0.2,0,0.3,0h0l0.2,0l0,0l0.2,0l0,0l0.2,0l0,0l0.2,0h37.4c10.3,0,18.7,8.4,18.7,18.7
			c0,9.5-7.1,17.4-16.3,18.5l14.5,14.5c2.4,2.4,2.4,6.4,0,8.8l0,0c-2.4,2.4-6.4,2.4-8.8,0l-25-25
			C488.4,113.7,488.4,109.7,490.8,107.3L490.8,107.3z M851.1,141.8L851.1,141.8c3,1.7,7,0.7,8.5-2.3l19.6-39.3l15,30.2h-1.3h-9
			c-3.4,0-6.2,2.8-6.2,6.2c0,3.4,2.8,6.2,6.2,6.2h9h11.3h0h1.2v-0.1c0.7-0.1,1.4-0.4,2-0.7l0,0c2-1.1,3-3.1,3.1-5.2v0l0-0.1v0l0-0.1
			v0v0l0-0.1l0,0c0-1-0.3-1.9-0.7-2.8l-25-50.3c-1-2.1-3.2-3.2-5.5-3.2c-2.2-0.1-4.4,1.1-5.5,3.2l-24.9,50
			C847.3,136.3,848.1,140.1,851.1,141.8L851.1,141.8z M702,80.5h27.9h12.5h9.5c3.4,0,6.2,2.8,6.2,6.2c0,3.4-2.8,6.2-6.2,6.2h-9.5
			h-12.5H702c-3.4,0-6.2-2.8-6.2-6.2C695.7,83.3,698.5,80.5,702,80.5L702,80.5z M702,130.4h27.9h12.5h9.5c3.4,0,6.2,2.8,6.2,6.2
			c0,3.4-2.8,6.2-6.2,6.2h-9.5h-12.5H702c-3.4,0-6.2-2.8-6.2-6.2C695.7,133.2,698.5,130.4,702,130.4L702,130.4z M702,105.5h27.9
			h11.3h1.2v0.1c2.9,0.6,5,3.1,5,6.1c0,3-2.2,5.6-5,6.1v0.1h-1.2h-11.3H702c-3.4,0-6.2-2.8-6.2-6.2
			C695.7,108.3,698.5,105.5,702,105.5L702,105.5z M621.8,81.2L621.8,81.2c3-1.7,7-0.7,8.5,2.3l19.6,39.3l19.7-39.5
			c1.5-3.1,5.5-4,8.5-2.3l0,0c3,1.7,3.8,5.4,2.3,8.5l-25,50.3c-1,2.1-3.2,3.2-5.5,3.2c-2.2,0.1-4.4-1.1-5.5-3.2l-24.9-50
			C617.9,86.6,618.8,82.9,621.8,81.2L621.8,81.2z M400.1,93v43.6c0,3.4-2.8,6.2-6.2,6.2l0,0c-3.4,0-6.2-2.8-6.2-6.2V86.8l0-0.2l0,0
			l0-0.2l0,0l0-0.2l0,0l0-0.2v0c0-0.1,0-0.2,0-0.3v0c0-0.1,0-0.2,0.1-0.3v0l0-0.1v0c0.5-2.3,2.4-4.1,4.7-4.7h0l0.1,0h0
			c0.1,0,0.2,0,0.3-0.1h0c0.1,0,0.2,0,0.3,0h0l0.2,0l0,0l0.2,0l0,0l0.2,0l0,0l0.2,0h37.4c10.3,0,18.7,8.4,18.7,18.7
			s-8.4,18.7-18.7,18.7h-12.5c-3.4,0-6.2-2.8-6.2-6.2c0-3.4,2.8-6.2,6.2-6.2h12.5c3.4,0,6.2-2.8,6.2-6.2c0-3.4-2.8-6.2-6.2-6.2
			H400.1L400.1,93z M547.8,80.5h27.9h12.5h9.5c3.4,0,6.2,2.8,6.2,6.2c0,3.4-2.8,6.2-6.2,6.2h-9.5h-12.5h-27.9
			c-3.4,0-6.2-2.8-6.2-6.2C541.6,83.3,544.4,80.5,547.8,80.5z M547.8,130.4h27.9h12.5h9.5c3.4,0,6.2,2.8,6.2,6.2
			c0,3.4-2.8,6.2-6.2,6.2h-9.5h-12.5h-27.9c-3.4,0-6.2-2.8-6.2-6.2C541.6,133.2,544.4,130.4,547.8,130.4z"/>
	</g>
	<path class="st14" d="M326.7,170L326.7,170c-2.5,0-4.5-2-4.5-4.5V57.9c0-2.5,2-4.5,4.5-4.5l0,0c2.5,0,4.5,2,4.5,4.5v107.6
		C331.2,168,329.2,170,326.7,170z"/>
	<g>
		<path class="st2" d="M3.3,211.1c1.4,0.9,3.4,1.6,5.5,1.6c3.2,0,5-1.7,5-4.1c0-2.2-1.3-3.5-4.5-4.7c-3.9-1.4-6.3-3.4-6.3-6.8
			c0-3.7,3.1-6.5,7.8-6.5c2.4,0,4.2,0.6,5.3,1.2l-0.9,2.5c-0.8-0.5-2.4-1.1-4.5-1.1c-3.3,0-4.5,2-4.5,3.6c0,2.2,1.5,3.3,4.8,4.6
			c4.1,1.6,6.1,3.5,6.1,7.1c0,3.7-2.7,6.9-8.4,6.9c-2.3,0-4.8-0.7-6.1-1.6L3.3,211.1z"/>
		<path class="st2" d="M24.8,192.8v5h4.5v2.4h-4.5v9.3c0,2.1,0.6,3.4,2.4,3.4c0.8,0,1.4-0.1,1.8-0.2l0.1,2.4
			c-0.6,0.2-1.6,0.4-2.8,0.4c-1.4,0-2.6-0.5-3.4-1.3c-0.9-0.9-1.2-2.5-1.2-4.5v-9.4h-2.7v-2.4h2.7v-4.1L24.8,192.8z"/>
		<path class="st2" d="M48.2,206.2c0,6.4-4.4,9.2-8.6,9.2c-4.7,0-8.3-3.4-8.3-8.9c0-5.8,3.8-9.1,8.5-9.1
			C44.9,197.3,48.2,200.9,48.2,206.2z M34.6,206.4c0,3.8,2.2,6.6,5.2,6.6c3,0,5.2-2.8,5.2-6.7c0-2.9-1.5-6.6-5.2-6.6
			C36.2,199.7,34.6,203.1,34.6,206.4z"/>
		<path class="st2" d="M52.2,203.1c0-2-0.1-3.8-0.1-5.4h2.7l0.1,3.4H55c0.8-2.3,2.7-3.8,4.8-3.8c0.3,0,0.6,0,0.9,0.1v2.9
			c-0.3-0.1-0.6-0.1-1.1-0.1c-2.2,0-3.8,1.7-4.2,4c-0.1,0.4-0.1,1-0.1,1.5v9.2h-3.1V203.1z"/>
		<path class="st2" d="M67.1,205.6L67.1,205.6c0.5-0.6,1.1-1.4,1.6-2l5.1-5.9h3.8l-6.6,7.1l7.6,10.1h-3.8l-5.9-8.3l-1.6,1.8v6.5H64
			v-25.3h3.1V205.6z"/>
		<path class="st2" d="M76.4,219.9c1.4-0.1,2.7-0.5,3.4-1.3c0.9-1,1.2-2.3,1.2-6.5v-14.4h3.1v15.6c0,3.3-0.5,5.5-2.1,7.1
			c-1.4,1.4-3.7,1.9-5.3,1.9L76.4,219.9z M84.5,192.9c0,1-0.7,1.9-2,1.9c-1.2,0-1.9-0.9-1.9-1.9c0-1.1,0.8-1.9,2-1.9
			C83.8,190.9,84.5,191.8,84.5,192.9z"/>
		<path class="st2" d="M100.9,198.5l1.5-2.1l1.4,1l-1.5,2.2c1.7,1.6,2.6,3.9,2.6,6.6c0,6.3-4.4,9.1-8.4,9.1c-1.6,0-3.1-0.4-4.4-1.2
			l-1.6,2.2l-1.3-1.1l1.5-2.1c-1.7-1.5-2.7-3.8-2.7-6.6c0-5.7,3.8-9.1,8.5-9.1C98.1,197.3,99.6,197.7,100.9,198.5z M99.5,200.7
			c-0.8-0.7-1.8-1-3-1c-3.8,0-5.4,3.6-5.4,6.7c0,1.5,0.4,3,1.2,4.3l0.1,0L99.5,200.7z M93.5,212c0.8,0.7,1.8,1,2.9,1
			c3.3,0,5.5-2.8,5.5-6.7c0-1.2-0.3-2.8-1.2-4.2l-0.1,0L93.5,212z"/>
		<path class="st2" d="M111.9,205.6L111.9,205.6c0.5-0.6,1.1-1.4,1.6-2l5.1-5.9h3.8l-6.6,7.1l7.6,10.1h-3.8l-5.9-8.3l-1.6,1.8v6.5
			h-3.1v-25.3h3.1V205.6z"/>
		<path class="st2" d="M129.2,205.6L129.2,205.6c0.5-0.6,1.1-1.4,1.6-2l5.1-5.9h3.8l-6.6,7.1l7.6,10.1h-3.8l-5.9-8.3l-1.6,1.8v6.5
			h-3.1v-25.3h3.1V205.6z"/>
		<path class="st2" d="M144.6,206.9c0.1,4.2,2.7,6,5.9,6c2.2,0,3.6-0.4,4.8-0.9l0.5,2.2c-1.1,0.5-3,1.1-5.7,1.1
			c-5.3,0-8.5-3.5-8.5-8.7c0-5.2,3.1-9.3,8.1-9.3c5.6,0,7.1,4.9,7.1,8.1c0,0.7,0,1.1-0.1,1.5H144.6z M153.7,204.6
			c0-2-0.8-5.1-4.3-5.1c-3.2,0-4.6,2.9-4.8,5.1H153.7z"/>
		<path class="st2" d="M160.7,202.4c0-1.8-0.1-3.2-0.1-4.6h2.8l0.2,2.8h0.1c0.8-1.6,2.8-3.2,5.7-3.2c2.4,0,6.1,1.4,6.1,7.3v10.3
			h-3.1V205c0-2.8-1-5.1-4-5.1c-2.1,0-3.7,1.5-4.2,3.2c-0.1,0.4-0.2,0.9-0.2,1.5v10.4h-3.1V202.4z"/>
		<path class="st2" d="M194.8,210.2c0,1.8,0.1,3.3,0.1,4.7h-2.8l-0.2-2.8h-0.1c-0.8,1.4-2.6,3.2-5.7,3.2c-2.7,0-5.9-1.5-5.9-7.5
			v-10.1h3.1v9.5c0,3.3,1,5.5,3.8,5.5c2.1,0,3.6-1.5,4.1-2.9c0.2-0.5,0.3-1,0.3-1.6v-10.5h3.1V210.2z"/>
		<path class="st2" d="M203.8,192.8v5h4.5v2.4h-4.5v9.3c0,2.1,0.6,3.4,2.4,3.4c0.8,0,1.4-0.1,1.8-0.2l0.1,2.4
			c-0.6,0.2-1.6,0.4-2.8,0.4c-1.4,0-2.6-0.5-3.4-1.3c-0.9-0.9-1.2-2.5-1.2-4.5v-9.4H198v-2.4h2.7v-4.1L203.8,192.8z"/>
		<path class="st2" d="M211.3,211.7c0.9,0.6,2.6,1.2,4.1,1.2c2.3,0,3.3-1.1,3.3-2.6c0-1.5-0.9-2.3-3.2-3.2c-3.1-1.1-4.6-2.8-4.6-4.9
			c0-2.8,2.3-5,6-5c1.8,0,3.3,0.5,4.2,1.1l-0.8,2.3c-0.7-0.4-1.9-1-3.5-1c-1.8,0-2.9,1.1-2.9,2.4c0,1.4,1,2.1,3.3,2.9
			c3,1.1,4.5,2.6,4.5,5.2c0,3-2.4,5.2-6.4,5.2c-1.9,0-3.6-0.5-4.8-1.2L211.3,211.7z"/>
		<path class="st2" d="M229.6,192.8v5h4.5v2.4h-4.5v9.3c0,2.1,0.6,3.4,2.4,3.4c0.8,0,1.4-0.1,1.8-0.2l0.1,2.4
			c-0.6,0.2-1.6,0.4-2.8,0.4c-1.4,0-2.6-0.5-3.4-1.3c-0.9-0.9-1.2-2.5-1.2-4.5v-9.4h-2.7v-2.4h2.7v-4.1L229.6,192.8z"/>
		<path class="st2" d="M239.1,197.7l3.8,10.2c0.4,1.1,0.8,2.5,1.1,3.5h0.1c0.3-1,0.7-2.3,1.1-3.6l3.4-10.1h3.3l-4.7,12.3
			c-2.2,5.9-3.8,8.9-5.9,10.8c-1.5,1.3-3.1,1.9-3.8,2l-0.8-2.6c0.8-0.2,1.8-0.7,2.7-1.5c0.8-0.7,1.9-1.9,2.6-3.5
			c0.2-0.3,0.2-0.6,0.2-0.8c0-0.2-0.1-0.4-0.2-0.8l-6.3-15.9H239.1z"/>
		<path class="st2" d="M254.7,203.1c0-2-0.1-3.8-0.1-5.4h2.7l0.1,3.4h0.1c0.8-2.3,2.7-3.8,4.8-3.8c0.3,0,0.6,0,0.9,0.1v2.9
			c-0.3-0.1-0.6-0.1-1.1-0.1c-2.2,0-3.8,1.7-4.2,4c-0.1,0.4-0.1,1-0.1,1.5v9.2h-3.1V203.1z"/>
	</g>
</g>
</svg>
